REM DIRINDEX 1\2,1\3\7,1\3\8,1\4\9,1\4\10,1\4\11,1\5\12,1\5\13,1\5\14,1\6\15,1\6\16,1\6\17
REM DIRNAME "folder01","folder02","folder03","folder04","folder05","folder06","folder07","folder08","folder09","folder10","folder11","folder12","folder13","folder14","folder15","folder16","folder17"
TITLE ""
FILE "2Q_j_1556-1569.mp3" MP3
  TRACK 01 AUDIO
    TITLE "0:"
    INDEX 01 00:00:00
  TRACK 02 AUDIO
    TITLE "9:cjc174_0887"
    INDEX 01 00:00:12
  TRACK 03 AUDIO
    TITLE "0:"
    INDEX 01 00:01:27
  TRACK 04 AUDIO
    TITLE "10:cjc174_0888"
    INDEX 01 00:02:05
  TRACK 05 AUDIO
    TITLE "0:"
    INDEX 01 00:04:37
  TRACK 06 AUDIO
    TITLE "11:cjc174_0889"
    INDEX 01 00:05:06
  TRACK 07 AUDIO
    TITLE "0:"
    INDEX 01 00:07:67
  TRACK 08 AUDIO
    TITLE "9:cjc174_0890"
    INDEX 01 00:08:41
  TRACK 09 AUDIO
    TITLE "0:"
    INDEX 01 00:09:66
  TRACK 10 AUDIO
    TITLE "10:cjc174_0891"
    INDEX 01 00:10:36
  TRACK 11 AUDIO
    TITLE "0:"
    INDEX 01 00:12:19
  TRACK 12 AUDIO
    TITLE "11:cjc174_0892"
    INDEX 01 00:12:64
  TRACK 13 AUDIO
    TITLE "0:"
    INDEX 01 00:15:27
  TRACK 14 AUDIO
    TITLE "9:cjc174_0893"
    INDEX 01 00:16:00
  TRACK 15 AUDIO
    TITLE "0:"
    INDEX 01 00:16:74
  TRACK 16 AUDIO
    TITLE "10:cjc174_0894"
    INDEX 01 00:17:56
  TRACK 17 AUDIO
    TITLE "0:"
    INDEX 01 00:21:20
  TRACK 18 AUDIO
    TITLE "11:cjc174_0895"
    INDEX 01 00:21:65
  TRACK 19 AUDIO
    TITLE "0:"
    INDEX 01 00:24:36
  TRACK 20 AUDIO
    TITLE "9:cjc174_0896"
    INDEX 01 00:25:08
  TRACK 21 AUDIO
    TITLE "0:"
    INDEX 01 00:26:70
  TRACK 22 AUDIO
    TITLE "10:cjc174_0897"
    INDEX 01 00:27:44
  TRACK 23 AUDIO
    TITLE "0:"
    INDEX 01 00:30:17
  TRACK 24 AUDIO
    TITLE "11:cjc174_0898"
    INDEX 01 00:30:64
  TRACK 25 AUDIO
    TITLE "0:"
    INDEX 01 00:34:62
  TRACK 26 AUDIO
    TITLE "9:cjc174_0899"
    INDEX 01 00:35:32
  TRACK 27 AUDIO
    TITLE "0:"
    INDEX 01 00:36:73
  TRACK 28 AUDIO
    TITLE "10:cjc174_0900"
    INDEX 01 00:37:49
  TRACK 29 AUDIO
    TITLE "0:"
    INDEX 01 00:39:08
  TRACK 30 AUDIO
    TITLE "11:cjc174_0901"
    INDEX 01 00:39:51
  TRACK 31 AUDIO
    TITLE "0:"
    INDEX 01 00:45:07
  TRACK 32 AUDIO
    TITLE "9:cjc174_0902"
    INDEX 01 00:45:54
  TRACK 33 AUDIO
    TITLE "0:"
    INDEX 01 00:47:33
  TRACK 34 AUDIO
    TITLE "10:cjc174_0903"
    INDEX 01 00:48:03
  TRACK 35 AUDIO
    TITLE "0:"
    INDEX 01 00:49:44
  TRACK 36 AUDIO
    TITLE "11:cjc174_0904"
    INDEX 01 00:50:18
  TRACK 37 AUDIO
    TITLE "0:"
    INDEX 01 00:55:41
  TRACK 38 AUDIO
    TITLE "9:cjc174_0905"
    INDEX 01 00:56:11
  TRACK 39 AUDIO
    TITLE "0:"
    INDEX 01 00:57:34
  TRACK 40 AUDIO
    TITLE "10:cjc174_0906"
    INDEX 01 00:58:04
  TRACK 41 AUDIO
    TITLE "0:"
    INDEX 01 00:59:72
  TRACK 42 AUDIO
    TITLE "11:cjc174_0907"
    INDEX 01 01:00:44
  TRACK 43 AUDIO
    TITLE "0:"
    INDEX 01 01:05:41
  TRACK 44 AUDIO
    TITLE "9:cjc174_0908"
    INDEX 01 01:06:11
  TRACK 45 AUDIO
    TITLE "0:"
    INDEX 01 01:07:52
  TRACK 46 AUDIO
    TITLE "10:cjc174_0909"
    INDEX 01 01:08:24
  TRACK 47 AUDIO
    TITLE "0:"
    INDEX 01 01:12:37
  TRACK 48 AUDIO
    TITLE "11:cjc174_0910"
    INDEX 01 01:13:09
  TRACK 49 AUDIO
    TITLE "0:"
    INDEX 01 01:16:47
  TRACK 50 AUDIO
    TITLE "9:cjc174_0911"
    INDEX 01 01:17:29
  TRACK 51 AUDIO
    TITLE "0:"
    INDEX 01 01:18:67
  TRACK 52 AUDIO
    TITLE "10:cjc174_0912"
    INDEX 01 01:19:37
  TRACK 53 AUDIO
    TITLE "0:"
    INDEX 01 01:20:45
  TRACK 54 AUDIO
    TITLE "11:cjc174_0913"
    INDEX 01 01:21:15
  TRACK 55 AUDIO
    TITLE "0:"
    INDEX 01 01:24:66
  TRACK 56 AUDIO
    TITLE "9:cjc174_0914"
    INDEX 01 01:25:40
  TRACK 57 AUDIO
    TITLE "0:"
    INDEX 01 01:26:61
  TRACK 58 AUDIO
    TITLE "10:cjc174_0915"
    INDEX 01 01:27:33
  TRACK 59 AUDIO
    TITLE "0:"
    INDEX 01 01:28:52
  TRACK 60 AUDIO
    TITLE "11:cjc174_0916"
    INDEX 01 01:29:24
  TRACK 61 AUDIO
    TITLE "0:"
    INDEX 01 01:34:41
  TRACK 62 AUDIO
    TITLE "9:cjc174_0917"
    INDEX 01 01:35:19
  TRACK 63 AUDIO
    TITLE "0:"
    INDEX 01 01:36:46
  TRACK 64 AUDIO
    TITLE "10:cjc174_0918"
    INDEX 01 01:37:16
  TRACK 65 AUDIO
    TITLE "0:"
    INDEX 01 01:42:17
  TRACK 66 AUDIO
    TITLE "11:cjc174_0919"
    INDEX 01 01:42:60
  TRACK 67 AUDIO
    TITLE "0:"
    INDEX 01 01:46:67
  TRACK 68 AUDIO
    TITLE "9:cjc174_0920"
    INDEX 01 01:47:39
  TRACK 69 AUDIO
    TITLE "0:"
    INDEX 01 01:49:48
  TRACK 70 AUDIO
    TITLE "10:cjc174_0921"
    INDEX 01 01:50:18
  TRACK 71 AUDIO
    TITLE "0:"
    INDEX 01 01:52:49
  TRACK 72 AUDIO
    TITLE "11:cjc174_0922"
    INDEX 01 01:53:17
  TRACK 73 AUDIO
    TITLE "0:"
    INDEX 01 01:57:42
  TRACK 74 AUDIO
    TITLE "9:cjc174_0923"
    INDEX 01 01:58:20
  TRACK 75 AUDIO
    TITLE "0:"
    INDEX 01 01:59:39
  TRACK 76 AUDIO
    TITLE "10:cjc174_0924"
    INDEX 01 02:00:13
  TRACK 77 AUDIO
    TITLE "0:"
    INDEX 01 02:02:23
  TRACK 78 AUDIO
    TITLE "11:cjc174_0925"
    INDEX 01 02:02:68
  TRACK 79 AUDIO
    TITLE "0:"
    INDEX 01 02:06:62
  TRACK 80 AUDIO
    TITLE "9:cjc174_0926"
    INDEX 01 02:07:34
  TRACK 81 AUDIO
    TITLE "0:"
    INDEX 01 02:09:18
  TRACK 82 AUDIO
    TITLE "10:cjc174_0927"
    INDEX 01 02:09:67
  TRACK 83 AUDIO
    TITLE "0:"
    INDEX 01 02:12:36
  TRACK 84 AUDIO
    TITLE "11:cjc174_0928"
    INDEX 01 02:13:10
  TRACK 85 AUDIO
    TITLE "0:"
    INDEX 01 02:18:22
